<mxfile host="app.diagrams.net" modified="2021-12-22T16:57:00.598Z" agent="5.0 (Windows NT 10.0; Win64; x64) AppleWebKit/537.36 (KHTML, like Gecko) Chrome/96.0.4664.110 Safari/537.36" etag="5ZmaaFKu3toF4M9Sol5V" version="16.0.2" type="github">
  <diagram name="Page-1" id="b5b7bab2-c9e2-2cf4-8b2a-24fd1a2a6d21">
    <mxGraphModel dx="1164" dy="758" grid="1" gridSize="10" guides="1" tooltips="1" connect="1" arrows="1" fold="1" page="0" pageScale="1" pageWidth="827" pageHeight="1169" background="none" math="0" shadow="0">
      <root>
        <mxCell id="0" />
        <mxCell id="1" parent="0" />
        <mxCell id="P1B_I_KBHa_o6JljEtR9-94" value="" style="html=1;dropTarget=0;fontColor=#666666;strokeColor=#666666;fillColor=none;" vertex="1" parent="1">
          <mxGeometry x="740" y="380" width="670" height="380" as="geometry" />
        </mxCell>
        <mxCell id="P1B_I_KBHa_o6JljEtR9-95" value="" style="shape=module;jettyWidth=8;jettyHeight=4;fontColor=#666666;strokeColor=#666666;" vertex="1" parent="P1B_I_KBHa_o6JljEtR9-94">
          <mxGeometry x="1" width="20" height="20" relative="1" as="geometry">
            <mxPoint x="-27" y="7" as="offset" />
          </mxGeometry>
        </mxCell>
        <mxCell id="6ISBo3wkqhLb4_i3pzPR-1" value="&lt;b&gt;Portal&lt;/b&gt;" style="html=1;dropTarget=0;" parent="1" vertex="1">
          <mxGeometry x="980" y="440" width="150" height="60" as="geometry" />
        </mxCell>
        <mxCell id="6ISBo3wkqhLb4_i3pzPR-2" value="" style="shape=module;jettyWidth=8;jettyHeight=4;" parent="6ISBo3wkqhLb4_i3pzPR-1" vertex="1">
          <mxGeometry x="1" width="20" height="20" relative="1" as="geometry">
            <mxPoint x="-27" y="7" as="offset" />
          </mxGeometry>
        </mxCell>
        <mxCell id="P1B_I_KBHa_o6JljEtR9-3" value="&lt;b&gt;Boletos&lt;/b&gt;" style="html=1;dropTarget=0;" vertex="1" parent="1">
          <mxGeometry x="980" y="550" width="150" height="60" as="geometry" />
        </mxCell>
        <mxCell id="P1B_I_KBHa_o6JljEtR9-4" value="" style="shape=module;jettyWidth=8;jettyHeight=4;" vertex="1" parent="P1B_I_KBHa_o6JljEtR9-3">
          <mxGeometry x="1" width="20" height="20" relative="1" as="geometry">
            <mxPoint x="-27" y="7" as="offset" />
          </mxGeometry>
        </mxCell>
        <mxCell id="P1B_I_KBHa_o6JljEtR9-5" value="&lt;b&gt;Rutas&lt;/b&gt;" style="html=1;dropTarget=0;" vertex="1" parent="1">
          <mxGeometry x="760" y="550" width="150" height="60" as="geometry" />
        </mxCell>
        <mxCell id="P1B_I_KBHa_o6JljEtR9-6" value="" style="shape=module;jettyWidth=8;jettyHeight=4;" vertex="1" parent="P1B_I_KBHa_o6JljEtR9-5">
          <mxGeometry x="1" width="20" height="20" relative="1" as="geometry">
            <mxPoint x="-27" y="7" as="offset" />
          </mxGeometry>
        </mxCell>
        <mxCell id="P1B_I_KBHa_o6JljEtR9-7" value="&lt;b&gt;Servicios Web&lt;/b&gt;" style="html=1;dropTarget=0;" vertex="1" parent="1">
          <mxGeometry x="1200" y="550" width="150" height="60" as="geometry" />
        </mxCell>
        <mxCell id="P1B_I_KBHa_o6JljEtR9-8" value="" style="shape=module;jettyWidth=8;jettyHeight=4;" vertex="1" parent="P1B_I_KBHa_o6JljEtR9-7">
          <mxGeometry x="1" width="20" height="20" relative="1" as="geometry">
            <mxPoint x="-27" y="7" as="offset" />
          </mxGeometry>
        </mxCell>
        <mxCell id="P1B_I_KBHa_o6JljEtR9-9" value="&lt;b&gt;Conector&lt;br&gt;Redes Sociales&lt;/b&gt;" style="html=1;dropTarget=0;" vertex="1" parent="1">
          <mxGeometry x="1200" y="440" width="150" height="60" as="geometry" />
        </mxCell>
        <mxCell id="P1B_I_KBHa_o6JljEtR9-10" value="" style="shape=module;jettyWidth=8;jettyHeight=4;" vertex="1" parent="P1B_I_KBHa_o6JljEtR9-9">
          <mxGeometry x="1" width="20" height="20" relative="1" as="geometry">
            <mxPoint x="-27" y="7" as="offset" />
          </mxGeometry>
        </mxCell>
        <mxCell id="P1B_I_KBHa_o6JljEtR9-11" value="&lt;b&gt;AdministraciÃ³n&lt;/b&gt;" style="html=1;dropTarget=0;" vertex="1" parent="1">
          <mxGeometry x="760" y="440" width="150" height="60" as="geometry" />
        </mxCell>
        <mxCell id="P1B_I_KBHa_o6JljEtR9-12" value="" style="shape=module;jettyWidth=8;jettyHeight=4;" vertex="1" parent="P1B_I_KBHa_o6JljEtR9-11">
          <mxGeometry x="1" width="20" height="20" relative="1" as="geometry">
            <mxPoint x="-27" y="7" as="offset" />
          </mxGeometry>
        </mxCell>
        <mxCell id="P1B_I_KBHa_o6JljEtR9-13" value="&lt;b&gt;Pagos&lt;/b&gt;" style="html=1;dropTarget=0;" vertex="1" parent="1">
          <mxGeometry x="980" y="660" width="150" height="60" as="geometry" />
        </mxCell>
        <mxCell id="P1B_I_KBHa_o6JljEtR9-14" value="" style="shape=module;jettyWidth=8;jettyHeight=4;" vertex="1" parent="P1B_I_KBHa_o6JljEtR9-13">
          <mxGeometry x="1" width="20" height="20" relative="1" as="geometry">
            <mxPoint x="-27" y="7" as="offset" />
          </mxGeometry>
        </mxCell>
        <mxCell id="P1B_I_KBHa_o6JljEtR9-15" value="" style="rounded=0;orthogonalLoop=1;jettySize=auto;html=1;endArrow=none;endFill=0;sketch=0;sourcePerimeterSpacing=0;targetPerimeterSpacing=0;exitX=0.75;exitY=0;exitDx=0;exitDy=0;" edge="1" target="P1B_I_KBHa_o6JljEtR9-17" parent="1" source="P1B_I_KBHa_o6JljEtR9-3">
          <mxGeometry relative="1" as="geometry">
            <mxPoint x="1010" y="640" as="sourcePoint" />
          </mxGeometry>
        </mxCell>
        <mxCell id="P1B_I_KBHa_o6JljEtR9-16" value="" style="rounded=0;orthogonalLoop=1;jettySize=auto;html=1;endArrow=halfCircle;endFill=0;entryX=0.5;entryY=0.5;endSize=6;strokeWidth=1;sketch=0;exitX=0.75;exitY=1;exitDx=0;exitDy=0;" edge="1" target="P1B_I_KBHa_o6JljEtR9-17" parent="1" source="6ISBo3wkqhLb4_i3pzPR-1">
          <mxGeometry relative="1" as="geometry">
            <mxPoint x="920" y="635" as="sourcePoint" />
          </mxGeometry>
        </mxCell>
        <mxCell id="P1B_I_KBHa_o6JljEtR9-17" value="" style="ellipse;whiteSpace=wrap;html=1;align=center;aspect=fixed;resizable=0;points=[];outlineConnect=0;sketch=0;" vertex="1" parent="1">
          <mxGeometry x="1087" y="521" width="10" height="10" as="geometry" />
        </mxCell>
        <mxCell id="P1B_I_KBHa_o6JljEtR9-18" value="" style="rounded=0;orthogonalLoop=1;jettySize=auto;html=1;endArrow=none;endFill=0;sketch=0;sourcePerimeterSpacing=0;targetPerimeterSpacing=0;exitX=1;exitY=0.5;exitDx=0;exitDy=0;" edge="1" target="P1B_I_KBHa_o6JljEtR9-20" parent="1" source="P1B_I_KBHa_o6JljEtR9-5">
          <mxGeometry relative="1" as="geometry">
            <mxPoint x="880" y="635" as="sourcePoint" />
          </mxGeometry>
        </mxCell>
        <mxCell id="P1B_I_KBHa_o6JljEtR9-19" value="" style="rounded=0;orthogonalLoop=1;jettySize=auto;html=1;endArrow=halfCircle;endFill=0;entryX=0.5;entryY=0.5;endSize=6;strokeWidth=1;sketch=0;exitX=0;exitY=0.5;exitDx=0;exitDy=0;" edge="1" target="P1B_I_KBHa_o6JljEtR9-20" parent="1" source="P1B_I_KBHa_o6JljEtR9-3">
          <mxGeometry relative="1" as="geometry">
            <mxPoint x="920" y="635" as="sourcePoint" />
          </mxGeometry>
        </mxCell>
        <mxCell id="P1B_I_KBHa_o6JljEtR9-20" value="" style="ellipse;whiteSpace=wrap;html=1;align=center;aspect=fixed;resizable=0;points=[];outlineConnect=0;sketch=0;" vertex="1" parent="1">
          <mxGeometry x="940" y="575" width="10" height="10" as="geometry" />
        </mxCell>
        <mxCell id="P1B_I_KBHa_o6JljEtR9-25" value="" style="rounded=0;orthogonalLoop=1;jettySize=auto;html=1;endArrow=none;endFill=0;sketch=0;sourcePerimeterSpacing=0;targetPerimeterSpacing=0;exitX=1;exitY=0.5;exitDx=0;exitDy=0;" edge="1" target="P1B_I_KBHa_o6JljEtR9-27" parent="1" source="6ISBo3wkqhLb4_i3pzPR-1">
          <mxGeometry relative="1" as="geometry">
            <mxPoint x="1020" y="635" as="sourcePoint" />
          </mxGeometry>
        </mxCell>
        <mxCell id="P1B_I_KBHa_o6JljEtR9-26" value="" style="rounded=0;orthogonalLoop=1;jettySize=auto;html=1;endArrow=halfCircle;endFill=0;entryX=0.5;entryY=0.5;endSize=6;strokeWidth=1;sketch=0;exitX=0;exitY=0.5;exitDx=0;exitDy=0;" edge="1" target="P1B_I_KBHa_o6JljEtR9-27" parent="1" source="P1B_I_KBHa_o6JljEtR9-9">
          <mxGeometry relative="1" as="geometry">
            <mxPoint x="1060" y="635" as="sourcePoint" />
          </mxGeometry>
        </mxCell>
        <mxCell id="P1B_I_KBHa_o6JljEtR9-27" value="" style="ellipse;whiteSpace=wrap;html=1;align=center;aspect=fixed;resizable=0;points=[];outlineConnect=0;sketch=0;" vertex="1" parent="1">
          <mxGeometry x="1160" y="465" width="10" height="10" as="geometry" />
        </mxCell>
        <mxCell id="P1B_I_KBHa_o6JljEtR9-34" value="&lt;b&gt;Empresas&lt;br&gt;VTP&lt;br&gt;&lt;/b&gt;" style="html=1;dropTarget=0;strokeColor=#666666;fontColor=#666666;fillColor=#f5f5f5;" vertex="1" parent="1">
          <mxGeometry x="1420" y="550" width="150" height="60" as="geometry" />
        </mxCell>
        <mxCell id="P1B_I_KBHa_o6JljEtR9-35" value="" style="shape=module;jettyWidth=8;jettyHeight=4;fontColor=#666666;strokeColor=#666666;" vertex="1" parent="P1B_I_KBHa_o6JljEtR9-34">
          <mxGeometry x="1" width="20" height="20" relative="1" as="geometry">
            <mxPoint x="-27" y="7" as="offset" />
          </mxGeometry>
        </mxCell>
        <mxCell id="P1B_I_KBHa_o6JljEtR9-37" value="" style="rounded=0;orthogonalLoop=1;jettySize=auto;html=1;endArrow=none;endFill=0;sketch=0;sourcePerimeterSpacing=0;targetPerimeterSpacing=0;exitX=1;exitY=0.25;exitDx=0;exitDy=0;" edge="1" target="P1B_I_KBHa_o6JljEtR9-39" parent="1" source="P1B_I_KBHa_o6JljEtR9-7">
          <mxGeometry relative="1" as="geometry">
            <mxPoint x="1220" y="605" as="sourcePoint" />
          </mxGeometry>
        </mxCell>
        <mxCell id="P1B_I_KBHa_o6JljEtR9-38" value="" style="rounded=0;orthogonalLoop=1;jettySize=auto;html=1;endArrow=halfCircle;endFill=0;entryX=0.5;entryY=0.5;endSize=6;strokeWidth=1;sketch=0;exitX=0;exitY=0.25;exitDx=0;exitDy=0;" edge="1" target="P1B_I_KBHa_o6JljEtR9-39" parent="1" source="P1B_I_KBHa_o6JljEtR9-34">
          <mxGeometry relative="1" as="geometry">
            <mxPoint x="1260" y="605" as="sourcePoint" />
          </mxGeometry>
        </mxCell>
        <mxCell id="P1B_I_KBHa_o6JljEtR9-39" value="" style="ellipse;whiteSpace=wrap;html=1;align=center;aspect=fixed;resizable=0;points=[];outlineConnect=0;sketch=0;" vertex="1" parent="1">
          <mxGeometry x="1380" y="560" width="10" height="10" as="geometry" />
        </mxCell>
        <mxCell id="P1B_I_KBHa_o6JljEtR9-40" value="&lt;b&gt;Servicio&amp;nbsp;de Pagos&lt;br&gt;&lt;/b&gt;" style="html=1;dropTarget=0;strokeColor=#666666;fontColor=#333333;fillColor=#f5f5f5;" vertex="1" parent="1">
          <mxGeometry x="1092" y="770" width="150" height="60" as="geometry" />
        </mxCell>
        <mxCell id="P1B_I_KBHa_o6JljEtR9-41" value="" style="shape=module;jettyWidth=8;jettyHeight=4;fontColor=#333333;strokeColor=#666666;fillColor=#f5f5f5;" vertex="1" parent="P1B_I_KBHa_o6JljEtR9-40">
          <mxGeometry x="1" width="20" height="20" relative="1" as="geometry">
            <mxPoint x="-27" y="7" as="offset" />
          </mxGeometry>
        </mxCell>
        <mxCell id="P1B_I_KBHa_o6JljEtR9-42" value="&lt;b&gt;Redes Sociales&lt;br&gt;&lt;/b&gt;" style="html=1;dropTarget=0;strokeColor=#666666;fontColor=#666666;fillColor=#f5f5f5;" vertex="1" parent="1">
          <mxGeometry x="1420" y="440" width="150" height="60" as="geometry" />
        </mxCell>
        <mxCell id="P1B_I_KBHa_o6JljEtR9-43" value="" style="shape=module;jettyWidth=8;jettyHeight=4;fontColor=#333333;strokeColor=#666666;fillColor=#f5f5f5;" vertex="1" parent="P1B_I_KBHa_o6JljEtR9-42">
          <mxGeometry x="1" width="20" height="20" relative="1" as="geometry">
            <mxPoint x="-27" y="7" as="offset" />
          </mxGeometry>
        </mxCell>
        <mxCell id="P1B_I_KBHa_o6JljEtR9-45" value="" style="rounded=0;orthogonalLoop=1;jettySize=auto;html=1;endArrow=none;endFill=0;sketch=0;sourcePerimeterSpacing=0;targetPerimeterSpacing=0;fontColor=#666666;exitX=0.25;exitY=1;exitDx=0;exitDy=0;" edge="1" target="P1B_I_KBHa_o6JljEtR9-47" parent="1" source="6ISBo3wkqhLb4_i3pzPR-1">
          <mxGeometry relative="1" as="geometry">
            <mxPoint x="1110" y="575" as="sourcePoint" />
          </mxGeometry>
        </mxCell>
        <mxCell id="P1B_I_KBHa_o6JljEtR9-46" value="" style="rounded=0;orthogonalLoop=1;jettySize=auto;html=1;endArrow=halfCircle;endFill=0;entryX=0.5;entryY=0.5;endSize=6;strokeWidth=1;sketch=0;fontColor=#666666;exitX=0.25;exitY=0;exitDx=0;exitDy=0;" edge="1" target="P1B_I_KBHa_o6JljEtR9-47" parent="1" source="P1B_I_KBHa_o6JljEtR9-3">
          <mxGeometry relative="1" as="geometry">
            <mxPoint x="1150" y="575" as="sourcePoint" />
          </mxGeometry>
        </mxCell>
        <mxCell id="P1B_I_KBHa_o6JljEtR9-47" value="" style="ellipse;whiteSpace=wrap;html=1;align=center;aspect=fixed;resizable=0;points=[];outlineConnect=0;sketch=0;fontColor=#666666;strokeColor=#666666;" vertex="1" parent="1">
          <mxGeometry x="1012" y="521" width="10" height="10" as="geometry" />
        </mxCell>
        <mxCell id="P1B_I_KBHa_o6JljEtR9-48" value="" style="rounded=0;orthogonalLoop=1;jettySize=auto;html=1;endArrow=none;endFill=0;sketch=0;sourcePerimeterSpacing=0;targetPerimeterSpacing=0;fontColor=#666666;exitX=1;exitY=0.25;exitDx=0;exitDy=0;" edge="1" target="P1B_I_KBHa_o6JljEtR9-50" parent="1" source="P1B_I_KBHa_o6JljEtR9-3">
          <mxGeometry relative="1" as="geometry">
            <mxPoint x="1180" y="585" as="sourcePoint" />
          </mxGeometry>
        </mxCell>
        <mxCell id="P1B_I_KBHa_o6JljEtR9-49" value="" style="rounded=0;orthogonalLoop=1;jettySize=auto;html=1;endArrow=halfCircle;endFill=0;entryX=0.5;entryY=0.5;endSize=6;strokeWidth=1;sketch=0;fontColor=#666666;exitX=0;exitY=0.25;exitDx=0;exitDy=0;" edge="1" target="P1B_I_KBHa_o6JljEtR9-50" parent="1" source="P1B_I_KBHa_o6JljEtR9-7">
          <mxGeometry relative="1" as="geometry">
            <mxPoint x="1220" y="585" as="sourcePoint" />
          </mxGeometry>
        </mxCell>
        <mxCell id="P1B_I_KBHa_o6JljEtR9-50" value="" style="ellipse;whiteSpace=wrap;html=1;align=center;aspect=fixed;resizable=0;points=[];outlineConnect=0;sketch=0;fontColor=#666666;strokeColor=#666666;" vertex="1" parent="1">
          <mxGeometry x="1160" y="560" width="10" height="10" as="geometry" />
        </mxCell>
        <mxCell id="P1B_I_KBHa_o6JljEtR9-53" value="" style="rounded=0;orthogonalLoop=1;jettySize=auto;html=1;endArrow=none;endFill=0;sketch=0;sourcePerimeterSpacing=0;targetPerimeterSpacing=0;fontColor=#666666;exitX=0;exitY=0.75;exitDx=0;exitDy=0;" edge="1" target="P1B_I_KBHa_o6JljEtR9-55" parent="1" source="P1B_I_KBHa_o6JljEtR9-34">
          <mxGeometry relative="1" as="geometry">
            <mxPoint x="1340" y="585" as="sourcePoint" />
          </mxGeometry>
        </mxCell>
        <mxCell id="P1B_I_KBHa_o6JljEtR9-54" value="" style="rounded=0;orthogonalLoop=1;jettySize=auto;html=1;endArrow=halfCircle;endFill=0;entryX=0.5;entryY=0.5;endSize=6;strokeWidth=1;sketch=0;fontColor=#666666;exitX=1;exitY=0.75;exitDx=0;exitDy=0;" edge="1" target="P1B_I_KBHa_o6JljEtR9-55" parent="1" source="P1B_I_KBHa_o6JljEtR9-7">
          <mxGeometry relative="1" as="geometry">
            <mxPoint x="1380" y="585" as="sourcePoint" />
          </mxGeometry>
        </mxCell>
        <mxCell id="P1B_I_KBHa_o6JljEtR9-55" value="" style="ellipse;whiteSpace=wrap;html=1;align=center;aspect=fixed;resizable=0;points=[];outlineConnect=0;sketch=0;fontColor=#666666;strokeColor=#666666;" vertex="1" parent="1">
          <mxGeometry x="1380" y="590" width="10" height="10" as="geometry" />
        </mxCell>
        <mxCell id="P1B_I_KBHa_o6JljEtR9-56" value="" style="rounded=0;orthogonalLoop=1;jettySize=auto;html=1;endArrow=none;endFill=0;sketch=0;sourcePerimeterSpacing=0;targetPerimeterSpacing=0;fontColor=#666666;exitX=0;exitY=0.75;exitDx=0;exitDy=0;" edge="1" target="P1B_I_KBHa_o6JljEtR9-58" parent="1" source="P1B_I_KBHa_o6JljEtR9-7">
          <mxGeometry relative="1" as="geometry">
            <mxPoint x="1220" y="565" as="sourcePoint" />
          </mxGeometry>
        </mxCell>
        <mxCell id="P1B_I_KBHa_o6JljEtR9-57" value="" style="rounded=0;orthogonalLoop=1;jettySize=auto;html=1;endArrow=halfCircle;endFill=0;entryX=0.5;entryY=0.5;endSize=6;strokeWidth=1;sketch=0;fontColor=#666666;exitX=1;exitY=0.75;exitDx=0;exitDy=0;" edge="1" target="P1B_I_KBHa_o6JljEtR9-58" parent="1" source="P1B_I_KBHa_o6JljEtR9-3">
          <mxGeometry relative="1" as="geometry">
            <mxPoint x="1260" y="565" as="sourcePoint" />
          </mxGeometry>
        </mxCell>
        <mxCell id="P1B_I_KBHa_o6JljEtR9-58" value="" style="ellipse;whiteSpace=wrap;html=1;align=center;aspect=fixed;resizable=0;points=[];outlineConnect=0;sketch=0;fontColor=#666666;strokeColor=#666666;" vertex="1" parent="1">
          <mxGeometry x="1160" y="590" width="10" height="10" as="geometry" />
        </mxCell>
        <mxCell id="P1B_I_KBHa_o6JljEtR9-59" value="" style="rounded=0;orthogonalLoop=1;jettySize=auto;html=1;endArrow=none;endFill=0;sketch=0;sourcePerimeterSpacing=0;targetPerimeterSpacing=0;fontColor=#666666;exitX=0.25;exitY=1;exitDx=0;exitDy=0;" edge="1" target="P1B_I_KBHa_o6JljEtR9-61" parent="1" source="P1B_I_KBHa_o6JljEtR9-3">
          <mxGeometry relative="1" as="geometry">
            <mxPoint x="1250" y="625" as="sourcePoint" />
          </mxGeometry>
        </mxCell>
        <mxCell id="P1B_I_KBHa_o6JljEtR9-60" value="" style="rounded=0;orthogonalLoop=1;jettySize=auto;html=1;endArrow=halfCircle;endFill=0;entryX=0.5;entryY=0.5;endSize=6;strokeWidth=1;sketch=0;fontColor=#666666;exitX=0.25;exitY=0;exitDx=0;exitDy=0;" edge="1" target="P1B_I_KBHa_o6JljEtR9-61" parent="1" source="P1B_I_KBHa_o6JljEtR9-13">
          <mxGeometry relative="1" as="geometry">
            <mxPoint x="1290" y="625" as="sourcePoint" />
          </mxGeometry>
        </mxCell>
        <mxCell id="P1B_I_KBHa_o6JljEtR9-61" value="" style="ellipse;whiteSpace=wrap;html=1;align=center;aspect=fixed;resizable=0;points=[];outlineConnect=0;sketch=0;fontColor=#666666;strokeColor=#666666;" vertex="1" parent="1">
          <mxGeometry x="1012" y="630" width="10" height="10" as="geometry" />
        </mxCell>
        <mxCell id="P1B_I_KBHa_o6JljEtR9-62" value="" style="rounded=0;orthogonalLoop=1;jettySize=auto;html=1;endArrow=none;endFill=0;sketch=0;sourcePerimeterSpacing=0;targetPerimeterSpacing=0;fontColor=#666666;exitX=0.75;exitY=0;exitDx=0;exitDy=0;" edge="1" target="P1B_I_KBHa_o6JljEtR9-64" parent="1" source="P1B_I_KBHa_o6JljEtR9-13">
          <mxGeometry relative="1" as="geometry">
            <mxPoint x="1250" y="625" as="sourcePoint" />
          </mxGeometry>
        </mxCell>
        <mxCell id="P1B_I_KBHa_o6JljEtR9-63" value="" style="rounded=0;orthogonalLoop=1;jettySize=auto;html=1;endArrow=halfCircle;endFill=0;entryX=0.5;entryY=0.5;endSize=6;strokeWidth=1;sketch=0;fontColor=#666666;exitX=0.75;exitY=1;exitDx=0;exitDy=0;" edge="1" target="P1B_I_KBHa_o6JljEtR9-64" parent="1" source="P1B_I_KBHa_o6JljEtR9-3">
          <mxGeometry relative="1" as="geometry">
            <mxPoint x="1290" y="625" as="sourcePoint" />
          </mxGeometry>
        </mxCell>
        <mxCell id="P1B_I_KBHa_o6JljEtR9-64" value="" style="ellipse;whiteSpace=wrap;html=1;align=center;aspect=fixed;resizable=0;points=[];outlineConnect=0;sketch=0;fontColor=#666666;strokeColor=#666666;" vertex="1" parent="1">
          <mxGeometry x="1087" y="630" width="10" height="10" as="geometry" />
        </mxCell>
        <mxCell id="P1B_I_KBHa_o6JljEtR9-65" value="&lt;b&gt;Servicio&amp;nbsp;de FacturaciÃ³n&lt;br&gt;&lt;/b&gt;" style="html=1;dropTarget=0;strokeColor=#666666;fontColor=#333333;fillColor=#f5f5f5;" vertex="1" parent="1">
          <mxGeometry x="867" y="770" width="150" height="60" as="geometry" />
        </mxCell>
        <mxCell id="P1B_I_KBHa_o6JljEtR9-66" value="" style="shape=module;jettyWidth=8;jettyHeight=4;fontColor=#333333;strokeColor=#666666;fillColor=#f5f5f5;" vertex="1" parent="P1B_I_KBHa_o6JljEtR9-65">
          <mxGeometry x="1" width="20" height="20" relative="1" as="geometry">
            <mxPoint x="-27" y="7" as="offset" />
          </mxGeometry>
        </mxCell>
        <mxCell id="P1B_I_KBHa_o6JljEtR9-67" value="" style="rounded=0;orthogonalLoop=1;jettySize=auto;html=1;endArrow=none;endFill=0;sketch=0;sourcePerimeterSpacing=0;targetPerimeterSpacing=0;fontColor=#666666;exitX=1;exitY=0.5;exitDx=0;exitDy=0;" edge="1" target="P1B_I_KBHa_o6JljEtR9-69" parent="1" source="P1B_I_KBHa_o6JljEtR9-9">
          <mxGeometry relative="1" as="geometry">
            <mxPoint x="1190" y="635" as="sourcePoint" />
          </mxGeometry>
        </mxCell>
        <mxCell id="P1B_I_KBHa_o6JljEtR9-68" value="" style="rounded=0;orthogonalLoop=1;jettySize=auto;html=1;endArrow=halfCircle;endFill=0;entryX=0.5;entryY=0.5;endSize=6;strokeWidth=1;sketch=0;fontColor=#666666;exitX=0;exitY=0.5;exitDx=0;exitDy=0;" edge="1" target="P1B_I_KBHa_o6JljEtR9-69" parent="1" source="P1B_I_KBHa_o6JljEtR9-42">
          <mxGeometry relative="1" as="geometry">
            <mxPoint x="1230" y="635" as="sourcePoint" />
          </mxGeometry>
        </mxCell>
        <mxCell id="P1B_I_KBHa_o6JljEtR9-69" value="" style="ellipse;whiteSpace=wrap;html=1;align=center;aspect=fixed;resizable=0;points=[];outlineConnect=0;sketch=0;fontColor=#666666;strokeColor=#666666;" vertex="1" parent="1">
          <mxGeometry x="1380" y="465" width="10" height="10" as="geometry" />
        </mxCell>
        <mxCell id="P1B_I_KBHa_o6JljEtR9-70" value="" style="rounded=0;orthogonalLoop=1;jettySize=auto;html=1;endArrow=none;endFill=0;sketch=0;sourcePerimeterSpacing=0;targetPerimeterSpacing=0;fontColor=#666666;exitX=0.25;exitY=1;exitDx=0;exitDy=0;" edge="1" target="P1B_I_KBHa_o6JljEtR9-72" parent="1" source="P1B_I_KBHa_o6JljEtR9-13">
          <mxGeometry relative="1" as="geometry">
            <mxPoint x="1190" y="635" as="sourcePoint" />
          </mxGeometry>
        </mxCell>
        <mxCell id="P1B_I_KBHa_o6JljEtR9-71" value="" style="rounded=0;orthogonalLoop=1;jettySize=auto;html=1;endArrow=halfCircle;endFill=0;entryX=0.5;entryY=0.5;endSize=6;strokeWidth=1;sketch=0;fontColor=#666666;exitX=1;exitY=0;exitDx=0;exitDy=0;" edge="1" target="P1B_I_KBHa_o6JljEtR9-72" parent="1" source="P1B_I_KBHa_o6JljEtR9-65">
          <mxGeometry relative="1" as="geometry">
            <mxPoint x="1230" y="635" as="sourcePoint" />
          </mxGeometry>
        </mxCell>
        <mxCell id="P1B_I_KBHa_o6JljEtR9-72" value="" style="ellipse;whiteSpace=wrap;html=1;align=center;aspect=fixed;resizable=0;points=[];outlineConnect=0;sketch=0;fontColor=#666666;strokeColor=#666666;" vertex="1" parent="1">
          <mxGeometry x="1012" y="740" width="10" height="10" as="geometry" />
        </mxCell>
        <mxCell id="P1B_I_KBHa_o6JljEtR9-73" value="" style="rounded=0;orthogonalLoop=1;jettySize=auto;html=1;endArrow=none;endFill=0;sketch=0;sourcePerimeterSpacing=0;targetPerimeterSpacing=0;fontColor=#666666;exitX=0.75;exitY=0;exitDx=0;exitDy=0;" edge="1" target="P1B_I_KBHa_o6JljEtR9-75" parent="1" source="P1B_I_KBHa_o6JljEtR9-65">
          <mxGeometry relative="1" as="geometry">
            <mxPoint x="1190" y="635" as="sourcePoint" />
          </mxGeometry>
        </mxCell>
        <mxCell id="P1B_I_KBHa_o6JljEtR9-74" value="" style="rounded=0;orthogonalLoop=1;jettySize=auto;html=1;endArrow=halfCircle;endFill=0;entryX=0.5;entryY=0.5;endSize=6;strokeWidth=1;sketch=0;fontColor=#666666;exitX=0;exitY=1;exitDx=0;exitDy=0;" edge="1" target="P1B_I_KBHa_o6JljEtR9-75" parent="1" source="P1B_I_KBHa_o6JljEtR9-13">
          <mxGeometry relative="1" as="geometry">
            <mxPoint x="1230" y="635" as="sourcePoint" />
          </mxGeometry>
        </mxCell>
        <mxCell id="P1B_I_KBHa_o6JljEtR9-75" value="" style="ellipse;whiteSpace=wrap;html=1;align=center;aspect=fixed;resizable=0;points=[];outlineConnect=0;sketch=0;fontColor=#666666;strokeColor=#666666;" vertex="1" parent="1">
          <mxGeometry x="975" y="740" width="10" height="10" as="geometry" />
        </mxCell>
        <mxCell id="P1B_I_KBHa_o6JljEtR9-77" value="" style="rounded=0;orthogonalLoop=1;jettySize=auto;html=1;endArrow=none;endFill=0;sketch=0;sourcePerimeterSpacing=0;targetPerimeterSpacing=0;fontColor=#666666;exitX=0.75;exitY=1;exitDx=0;exitDy=0;" edge="1" target="P1B_I_KBHa_o6JljEtR9-79" parent="1" source="P1B_I_KBHa_o6JljEtR9-13">
          <mxGeometry relative="1" as="geometry">
            <mxPoint x="1060" y="755" as="sourcePoint" />
          </mxGeometry>
        </mxCell>
        <mxCell id="P1B_I_KBHa_o6JljEtR9-78" value="" style="rounded=0;orthogonalLoop=1;jettySize=auto;html=1;endArrow=halfCircle;endFill=0;entryX=0.5;entryY=0.5;endSize=6;strokeWidth=1;sketch=0;fontColor=#666666;exitX=0;exitY=0;exitDx=0;exitDy=0;" edge="1" target="P1B_I_KBHa_o6JljEtR9-79" parent="1" source="P1B_I_KBHa_o6JljEtR9-40">
          <mxGeometry relative="1" as="geometry">
            <mxPoint x="1100" y="755" as="sourcePoint" />
          </mxGeometry>
        </mxCell>
        <mxCell id="P1B_I_KBHa_o6JljEtR9-79" value="" style="ellipse;whiteSpace=wrap;html=1;align=center;aspect=fixed;resizable=0;points=[];outlineConnect=0;sketch=0;fontColor=#666666;strokeColor=#666666;" vertex="1" parent="1">
          <mxGeometry x="1087" y="740" width="10" height="10" as="geometry" />
        </mxCell>
        <mxCell id="P1B_I_KBHa_o6JljEtR9-80" value="" style="rounded=0;orthogonalLoop=1;jettySize=auto;html=1;endArrow=none;endFill=0;sketch=0;sourcePerimeterSpacing=0;targetPerimeterSpacing=0;fontColor=#666666;exitX=0.25;exitY=0;exitDx=0;exitDy=0;" edge="1" target="P1B_I_KBHa_o6JljEtR9-82" parent="1" source="P1B_I_KBHa_o6JljEtR9-40">
          <mxGeometry relative="1" as="geometry">
            <mxPoint x="1060" y="755" as="sourcePoint" />
          </mxGeometry>
        </mxCell>
        <mxCell id="P1B_I_KBHa_o6JljEtR9-81" value="" style="rounded=0;orthogonalLoop=1;jettySize=auto;html=1;endArrow=halfCircle;endFill=0;entryX=0.5;entryY=0.5;endSize=6;strokeWidth=1;sketch=0;fontColor=#666666;exitX=1;exitY=1;exitDx=0;exitDy=0;" edge="1" target="P1B_I_KBHa_o6JljEtR9-82" parent="1" source="P1B_I_KBHa_o6JljEtR9-13">
          <mxGeometry relative="1" as="geometry">
            <mxPoint x="1100" y="755" as="sourcePoint" />
          </mxGeometry>
        </mxCell>
        <mxCell id="P1B_I_KBHa_o6JljEtR9-82" value="" style="ellipse;whiteSpace=wrap;html=1;align=center;aspect=fixed;resizable=0;points=[];outlineConnect=0;sketch=0;fontColor=#666666;strokeColor=#666666;" vertex="1" parent="1">
          <mxGeometry x="1125" y="740" width="10" height="10" as="geometry" />
        </mxCell>
        <mxCell id="P1B_I_KBHa_o6JljEtR9-86" value="" style="rounded=0;orthogonalLoop=1;jettySize=auto;html=1;endArrow=none;endFill=0;sketch=0;sourcePerimeterSpacing=0;targetPerimeterSpacing=0;fontColor=#666666;exitX=0;exitY=0.25;exitDx=0;exitDy=0;" edge="1" target="P1B_I_KBHa_o6JljEtR9-88" parent="1" source="6ISBo3wkqhLb4_i3pzPR-1">
          <mxGeometry relative="1" as="geometry">
            <mxPoint x="1010" y="545" as="sourcePoint" />
          </mxGeometry>
        </mxCell>
        <mxCell id="P1B_I_KBHa_o6JljEtR9-87" value="" style="rounded=0;orthogonalLoop=1;jettySize=auto;html=1;endArrow=halfCircle;endFill=0;entryX=0.5;entryY=0.5;endSize=6;strokeWidth=1;sketch=0;fontColor=#666666;exitX=1;exitY=0.25;exitDx=0;exitDy=0;" edge="1" target="P1B_I_KBHa_o6JljEtR9-88" parent="1" source="P1B_I_KBHa_o6JljEtR9-11">
          <mxGeometry relative="1" as="geometry">
            <mxPoint x="1050" y="545" as="sourcePoint" />
          </mxGeometry>
        </mxCell>
        <mxCell id="P1B_I_KBHa_o6JljEtR9-88" value="" style="ellipse;whiteSpace=wrap;html=1;align=center;aspect=fixed;resizable=0;points=[];outlineConnect=0;sketch=0;fontColor=#666666;strokeColor=#666666;" vertex="1" parent="1">
          <mxGeometry x="940" y="450" width="10" height="10" as="geometry" />
        </mxCell>
        <mxCell id="P1B_I_KBHa_o6JljEtR9-89" value="" style="rounded=0;orthogonalLoop=1;jettySize=auto;html=1;endArrow=none;endFill=0;sketch=0;sourcePerimeterSpacing=0;targetPerimeterSpacing=0;fontColor=#666666;exitX=1;exitY=0.75;exitDx=0;exitDy=0;" edge="1" target="P1B_I_KBHa_o6JljEtR9-91" parent="1" source="P1B_I_KBHa_o6JljEtR9-11">
          <mxGeometry relative="1" as="geometry">
            <mxPoint x="1010" y="545" as="sourcePoint" />
          </mxGeometry>
        </mxCell>
        <mxCell id="P1B_I_KBHa_o6JljEtR9-90" value="" style="rounded=0;orthogonalLoop=1;jettySize=auto;html=1;endArrow=halfCircle;endFill=0;entryX=0.5;entryY=0.5;endSize=6;strokeWidth=1;sketch=0;fontColor=#666666;exitX=0;exitY=0.75;exitDx=0;exitDy=0;" edge="1" target="P1B_I_KBHa_o6JljEtR9-91" parent="1" source="6ISBo3wkqhLb4_i3pzPR-1">
          <mxGeometry relative="1" as="geometry">
            <mxPoint x="1050" y="545" as="sourcePoint" />
          </mxGeometry>
        </mxCell>
        <mxCell id="P1B_I_KBHa_o6JljEtR9-91" value="" style="ellipse;whiteSpace=wrap;html=1;align=center;aspect=fixed;resizable=0;points=[];outlineConnect=0;sketch=0;fontColor=#666666;strokeColor=#666666;" vertex="1" parent="1">
          <mxGeometry x="940" y="480" width="10" height="10" as="geometry" />
        </mxCell>
        <mxCell id="P1B_I_KBHa_o6JljEtR9-96" value="RED ADM" style="text;align=center;fontStyle=1;verticalAlign=middle;spacingLeft=3;spacingRight=3;strokeColor=none;rotatable=0;points=[[0,0.5],[1,0.5]];portConstraint=eastwest;fontColor=#666666;fillColor=none;" vertex="1" parent="1">
          <mxGeometry x="750" y="390" width="80" height="26" as="geometry" />
        </mxCell>
        <mxCell id="P1B_I_KBHa_o6JljEtR9-99" value="&lt;b&gt;Logs&lt;/b&gt;" style="html=1;dropTarget=0;" vertex="1" parent="1">
          <mxGeometry x="520" y="445" width="150" height="60" as="geometry" />
        </mxCell>
        <mxCell id="P1B_I_KBHa_o6JljEtR9-100" value="" style="shape=module;jettyWidth=8;jettyHeight=4;" vertex="1" parent="P1B_I_KBHa_o6JljEtR9-99">
          <mxGeometry x="1" width="20" height="20" relative="1" as="geometry">
            <mxPoint x="-27" y="7" as="offset" />
          </mxGeometry>
        </mxCell>
        <mxCell id="P1B_I_KBHa_o6JljEtR9-101" value="" style="rounded=0;orthogonalLoop=1;jettySize=auto;html=1;endArrow=none;endFill=0;sketch=0;sourcePerimeterSpacing=0;targetPerimeterSpacing=0;fontColor=#666666;exitX=0;exitY=0.25;exitDx=0;exitDy=0;" edge="1" target="P1B_I_KBHa_o6JljEtR9-103" parent="1" source="P1B_I_KBHa_o6JljEtR9-94">
          <mxGeometry relative="1" as="geometry">
            <mxPoint x="860" y="605" as="sourcePoint" />
          </mxGeometry>
        </mxCell>
        <mxCell id="P1B_I_KBHa_o6JljEtR9-102" value="" style="rounded=0;orthogonalLoop=1;jettySize=auto;html=1;endArrow=halfCircle;endFill=0;entryX=0.5;entryY=0.5;endSize=6;strokeWidth=1;sketch=0;fontColor=#666666;exitX=1;exitY=0.5;exitDx=0;exitDy=0;" edge="1" target="P1B_I_KBHa_o6JljEtR9-103" parent="1" source="P1B_I_KBHa_o6JljEtR9-99">
          <mxGeometry relative="1" as="geometry">
            <mxPoint x="900" y="605" as="sourcePoint" />
          </mxGeometry>
        </mxCell>
        <mxCell id="P1B_I_KBHa_o6JljEtR9-103" value="" style="ellipse;whiteSpace=wrap;html=1;align=center;aspect=fixed;resizable=0;points=[];outlineConnect=0;sketch=0;fontColor=#666666;strokeColor=#666666;fillColor=none;" vertex="1" parent="1">
          <mxGeometry x="710" y="470" width="10" height="10" as="geometry" />
        </mxCell>
      </root>
    </mxGraphModel>
  </diagram>
</mxfile>
